HIERARCHY
ROOT Hips
{
	OFFSET 0.000000 0.000000 0.000000
	CHANNELS 6 Xposition Yposition Zposition Xrotation Yrotation Zrotation
	JOINT LeftUpLeg_virtual
	{
		OFFSET 0.000000 0.000000 0.000000
		CHANNELS 3 Xrotation Yrotation Zrotation
		JOINT LeftUpLeg
		{
			OFFSET 15.427100 -6.655098 0.678600
			CHANNELS 3 Xrotation Yrotation Zrotation
			JOINT LeftLeg
			{
				OFFSET 4.081073 -39.591068 13.024000
				CHANNELS 3 Xrotation Yrotation Zrotation
				JOINT LeftFoot
				{
					OFFSET -4.081074 -37.707932 -15.979700
					CHANNELS 3 Xrotation Yrotation Zrotation
					JOINT LeftToeBase
					{
						OFFSET 5.346399 -15.068900 20.645000
						CHANNELS 3 Xrotation Yrotation Zrotation
						JOINT LeftToe_End
						{
							OFFSET 2.754700 0.931300 11.300900
							CHANNELS 3 Xrotation Yrotation Zrotation
							End Site
							{
								OFFSET 0 0 0
							}
						}
					}
				}
			}
		}
	}
	JOINT RightUpLeg_virtual
	{
		OFFSET 0.000000 0.000000 0.000000
		CHANNELS 3 Xrotation Yrotation Zrotation
		JOINT RightUpLeg
		{
			OFFSET -15.569500 -6.655098 0.678600
			CHANNELS 3 Xrotation Yrotation Zrotation
			JOINT RightLeg
			{
				OFFSET -4.081825 -39.591045 13.023800
				CHANNELS 3 Xrotation Yrotation Zrotation
				JOINT RightFoot
				{
					OFFSET 4.081824 -37.707954 -15.979600
					CHANNELS 3 Xrotation Yrotation Zrotation
					JOINT RightToeBase
					{
						OFFSET -5.346400 -15.068900 20.645000
						CHANNELS 3 Xrotation Yrotation Zrotation
						JOINT RightToe_End
						{
							OFFSET -2.754700 0.931300 11.300900
							CHANNELS 3 Xrotation Yrotation Zrotation
							End Site
							{
								OFFSET 0 0 0
							}
						}
					}
				}
			}
		}
	}
	JOINT Spine_virtual
	{
		OFFSET 0.000000 0.000000 0.000000
		CHANNELS 3 Xrotation Yrotation Zrotation
		JOINT Spine
		{
			OFFSET -0.279200 12.230698 -2.892100
			CHANNELS 3 Xrotation Yrotation Zrotation
			JOINT Spine1
			{
				OFFSET -0.232667 10.192268 -1.242267
				CHANNELS 3 Xrotation Yrotation Zrotation
				JOINT Spine1_split
				{
					OFFSET -0.232667 10.192268 -1.242267
					CHANNELS 3 Xrotation Yrotation Zrotation
					JOINT Spine2
					{
						OFFSET -0.232667 10.192268 -1.242267
						CHANNELS 3 Xrotation Yrotation Zrotation
						JOINT Neck_virtual
						{
							OFFSET 0.000000 0.000000 0.000000
							CHANNELS 3 Xrotation Yrotation Zrotation
							JOINT Neck
							{
								OFFSET -0.418800 17.814194 8.416900
								CHANNELS 3 Xrotation Yrotation Zrotation
								JOINT Head
								{
									OFFSET 0.000000 7.031097 3.806800
									CHANNELS 3 Xrotation Yrotation Zrotation
									JOINT HeadTop_End
									{
										OFFSET 0.000000 24.646606 12.978600
										CHANNELS 3 Xrotation Yrotation Zrotation
										End Site
										{
											OFFSET 0 0 0
										}
									}
								}
							}
						}
						JOINT LeftShoulder_virtual
						{
							OFFSET 0.000000 0.000000 0.000000
							CHANNELS 3 Xrotation Yrotation Zrotation
							JOINT LeftShoulder
							{
								OFFSET 8.476499 7.247704 -3.868750
								CHANNELS 3 Xrotation Yrotation Zrotation
								JOINT LeftShoulder_split
								{
									OFFSET 8.476499 7.247704 -3.868750
									CHANNELS 3 Xrotation Yrotation Zrotation
									JOINT LeftArm
									{
										OFFSET 9.308998 -2.777710 0.208600
										CHANNELS 3 Xrotation Yrotation Zrotation
										JOINT LeftForeArm
										{
											OFFSET 29.972298 0.000000 0.000000
											CHANNELS 3 Xrotation Yrotation Zrotation
											JOINT LeftHand
											{
												OFFSET 26.026505 0.000000 0.000000
												CHANNELS 3 Xrotation Yrotation Zrotation
												End Site
												{
													OFFSET 0 0 0
												}
											}
										}
									}
								}
							}
						}
						JOINT RightShoulder_virtual
						{
							OFFSET 0.000000 0.000000 0.000000
							CHANNELS 3 Xrotation Yrotation Zrotation
							JOINT RightShoulder
							{
								OFFSET -7.570500 7.247704 -3.868750
								CHANNELS 3 Xrotation Yrotation Zrotation
								JOINT RightShoulder_split
								{
									OFFSET -7.570500 7.247704 -3.868750
									CHANNELS 3 Xrotation Yrotation Zrotation
									JOINT RightArm
									{
										OFFSET -9.308998 -2.777710 0.208500
										CHANNELS 3 Xrotation Yrotation Zrotation
										JOINT RightForeArm
										{
											OFFSET -29.972300 0.000000 0.000000
											CHANNELS 3 Xrotation Yrotation Zrotation
											JOINT RightHand
											{
												OFFSET -26.026505 0.000000 0.000000
												CHANNELS 3 Xrotation Yrotation Zrotation
												End Site
												{
													OFFSET 0 0 0
												}
											}
										}
									}
								}
							}
						}
					}
				}
			}
		}
	}
}
MOTION
Frames: 7
Frame Time: 0.03333333
-8.166292 76.784958 0.096848 0.000000 0.000000 0.000000 28.879116 -45.169772 12.571085 -88.371501 -4.925500 10.732088 60.947567 0.322757 -1.136391 24.626083 -3.180567 -7.399469 -3.946526 2.479618 -0.317373 0.000000 0.000000 0.000000 26.638506 -43.886301 10.558962 -16.959580 -16.446897 -16.952089 44.826337 -6.969044 5.551991 -21.801754 -14.708146 25.229967 -3.952790 -0.130673 3.801440 0.000000 0.000000 0.000000 30.797839 -45.147561 13.603678 -1.631937 6.797461 -1.944417 -1.300063 2.493189 0.410428 0.907481 -1.001382 0.311698 0.000000 0.000000 0.000000 0.386466 0.203268 1.211004 10.536667 6.440896 -8.260888 -3.448444 20.545650 11.280830 0.000000 0.000000 0.000000 -2.663350 1.272534 0.924697 3.476025 3.755126 -9.876285 0.741654 4.667674 1.250196 -52.347372 -28.708853 -48.569171 0.513094 -71.017186 2.134689 0.000000 0.000000 0.000000 -2.349415 0.155654 0.714757 -12.686657 -0.468149 -4.124595 -8.011699 0.375176 -1.452731 -107.539860 37.138201 126.083803 -4.583842 24.903513 1.999806 0.000000 0.000000 0.000000 
-7.048940 77.897720 -5.202591 0.000000 0.000000 0.000000 29.276469 -42.933131 11.399435 -85.661104 -5.211718 9.034156 63.308095 -0.090940 -0.338646 20.947919 -3.906419 -8.614216 -5.566283 1.754305 1.480269 0.000000 0.000000 0.000000 27.078737 -43.980076 10.298718 -16.331259 -18.877347 -14.175636 41.774981 -6.049767 4.910774 -23.406228 -13.818889 26.490394 -2.989133 0.501834 2.408077 0.000000 0.000000 0.000000 32.649073 -44.999622 13.936262 -2.223752 7.033803 -1.383238 -1.316919 2.629157 0.307193 2.008026 -1.140566 0.482566 0.000000 0.000000 0.000000 0.432082 0.301315 1.166082 10.677617 6.285192 -8.022637 -3.199883 20.557261 11.226597 0.000000 0.000000 0.000000 -2.419753 1.300953 0.818980 3.370558 3.254177 -10.102442 1.468660 4.837440 1.265751 -52.125921 -28.998374 -48.311912 0.320410 -70.343756 1.895989 0.000000 0.000000 0.000000 -2.108823 0.348475 0.810130 -12.719130 -0.785783 -3.774227 -8.460079 0.542403 -1.429120 -107.391215 37.858495 126.112777 -4.313277 23.273619 1.959728 0.000000 0.000000 0.000000 
-5.714155 79.201866 -12.363857 0.000000 0.000000 0.000000 29.965536 -42.780760 10.726689 -80.966572 -4.654342 6.702025 64.112076 -0.949087 0.727830 15.218908 -5.470314 -9.214814 -9.118040 0.650056 4.108670 0.000000 0.000000 0.000000 28.041951 -45.966890 10.763708 -17.073579 -21.708880 -10.947771 39.099681 -4.981697 5.106726 -23.824603 -11.974414 26.717228 -4.262109 0.946911 0.543363 0.000000 0.000000 0.000000 34.823815 -45.947506 14.554035 -2.456067 7.604914 -0.621615 -1.304735 3.101282 0.254147 2.464882 -1.241306 0.501386 0.000000 0.000000 0.000000 0.516888 0.696490 1.119215 10.743815 5.876074 -7.344513 -2.777393 19.826205 11.447523 0.000000 0.000000 0.000000 -2.241557 1.655413 0.745347 3.183681 2.364331 -10.292815 2.017373 4.652993 1.511956 -51.951317 -29.864357 -47.903877 -0.154396 -70.431012 1.340236 0.000000 0.000000 0.000000 -1.749800 0.864293 0.932405 -12.915083 -1.372397 -2.866334 -8.800201 0.586953 -1.740335 -106.972367 38.345392 125.691463 -3.963663 21.901266 1.752781 0.000000 0.000000 0.000000 
-4.734082 80.021889 -20.118393 0.000000 0.000000 0.000000 31.221433 -45.140399 11.112143 -76.049300 -4.016631 4.838491 63.414482 -2.324923 1.360040 9.167962 -7.469163 -8.500600 -12.768374 -0.619080 6.601027 0.000000 0.000000 0.000000 29.292789 -49.424936 11.838294 -18.766423 -24.150410 -8.496818 38.170174 -3.879038 6.112816 -23.413620 -10.267890 25.806278 -6.576446 1.173846 -1.195571 0.000000 0.000000 0.000000 36.637920 -47.848013 15.290389 -2.283085 8.399607 0.147744 -1.327012 3.769481 0.269525 1.787803 -1.011097 0.421128 0.000000 0.000000 0.000000 0.610116 1.283054 1.097616 10.651709 5.308806 -6.394379 -2.337772 18.598957 11.812812 0.000000 0.000000 0.000000 -2.145523 2.212690 0.724763 2.977154 1.330989 -10.379197 2.327062 4.377355 1.710932 -51.938722 -31.087551 -47.289781 -0.865591 -71.046603 0.517908 0.000000 0.000000 0.000000 -1.365592 1.579240 1.079922 -13.196856 -2.068781 -1.773198 -8.974745 0.535837 -2.148750 -106.448594 38.383464 125.009619 -3.630655 21.281336 1.465237 0.000000 0.000000 0.000000 
-4.292215 79.718597 -27.549850 0.000000 0.000000 0.000000 32.824803 -48.888636 12.361515 -72.462508 -3.643494 4.402908 62.588486 -3.661611 1.147801 4.289169 -8.855322 -5.856235 -14.007436 -1.381610 7.494621 0.000000 0.000000 0.000000 30.789400 -53.366761 13.213736 -19.597464 -25.159529 -7.461019 39.368903 -3.307092 7.236735 -22.829289 -10.283827 23.361173 -8.454305 1.069207 -2.375266 0.000000 0.000000 0.000000 37.238205 -50.231229 15.580869 -1.671291 9.297341 0.724750 -1.385157 4.439629 0.379681 0.979723 -0.386335 0.412614 0.000000 0.000000 0.000000 0.654469 1.865738 1.136406 10.454293 4.662293 -5.396981 -2.003584 17.282993 12.137222 0.000000 0.000000 0.000000 -2.111363 2.762103 0.757102 2.828271 0.459724 -10.510830 2.327791 4.313381 1.834715 -52.123537 -32.382289 -46.506683 -1.648499 -71.606556 -0.392780 0.000000 0.000000 0.000000 -1.060895 2.299451 1.248972 -13.456155 -2.714317 -0.855504 -8.568418 0.428284 -2.492409 -105.941418 37.910203 124.282983 -3.385667 21.556770 1.202335 0.000000 0.000000 0.000000 
-4.243021 77.968613 -34.877869 0.000000 0.000000 0.000000 34.223148 -52.738991 13.933769 -71.641991 -3.897907 5.967780 62.525778 -4.433966 -0.011559 0.871022 -8.878306 -1.420454 -11.710929 -1.140128 6.293593 0.000000 0.000000 0.000000 31.999539 -56.876358 14.485646 -18.107340 -23.939221 -8.463590 42.238211 -3.157200 7.798324 -21.849285 -12.800447 20.298748 -9.424258 0.668611 -2.864734 0.000000 0.000000 0.000000 36.464993 -52.505676 15.196254 -0.758788 10.140977 1.027302 -1.501762 4.894529 0.567697 0.776607 0.417842 0.208786 0.000000 0.000000 0.000000 0.597498 2.274037 1.236453 10.213657 4.059700 -4.539443 -1.749359 16.207755 12.267558 0.000000 0.000000 0.000000 -2.140589 3.124990 0.812913 2.768492 -0.093938 -10.703350 2.176528 4.305709 1.879572 -52.483669 -33.520731 -45.750260 -2.229153 -71.610121 -1.110743 0.000000 0.000000 0.000000 -0.873817 2.841495 1.438019 -13.615021 -3.119814 -0.364740 -7.707083 0.299478 -2.796498 -105.600503 37.081637 123.692540 -3.262181 22.409914 1.061057 0.000000 0.000000 0.000000 
-4.323248 74.942436 -42.074883 0.000000 0.000000 0.000000 35.007383 -56.037987 15.437489 -73.680522 -5.219158 9.415542 62.951333 -4.640041 -1.798237 -1.546215 -7.945522 2.662089 -7.531360 -0.289708 3.373419 0.000000 0.000000 0.000000 32.683483 -59.640194 15.439096 -14.241337 -20.592436 -11.814346 44.422369 -3.261541 7.293048 -20.006806 -17.593845 18.351255 -9.425636 0.063744 -2.432922 0.000000 0.000000 0.000000 34.781082 -54.723209 14.537660 0.270991 10.879966 0.856677 -1.631077 5.045766 0.760928 1.176666 1.192400 0.335696 0.000000 0.000000 0.000000 0.457430 2.432470 1.404325 10.072829 3.621083 -3.978827 -1.471584 15.599971 12.157353 0.000000 0.000000 0.000000 -2.152923 3.213723 0.887875 2.813657 -0.149743 -10.981624 2.057050 4.130336 1.770134 -53.020447 -34.513718 -45.359471 -2.303260 -71.057415 -1.315659 0.000000 0.000000 0.000000 -0.861758 3.081860 1.597173 -13.662739 -3.108512 -0.266015 -6.701595 0.078967 -3.016457 -105.525617 36.080286 123.198540 -3.245474 23.269280 1.098072 0.000000 0.000000 0.000000 
